<svg width="161" height="79" viewBox="0 0 161 79" fill="none" xmlns="http://www.w3.org/2000/svg">
<path fill-rule="evenodd" clip-rule="evenodd" d="M117.309 5.27202H72.027C68.8787 5.27202 65.9153 6.38322 63.5078 8.32782L63.3226 8.51303H121.753C120.642 11.5688 117.772 13.606 114.531 13.606H72.027C68.9712 13.606 66.0081 14.6246 63.5078 16.4767L63.3226 16.6619H118.883C117.772 19.7177 114.901 21.7549 111.66 21.7549H71.9345C68.786 21.7549 65.8229 22.6809 63.3226 24.6255L63.1374 24.8107H116.012C114.901 27.8665 112.03 29.9036 108.789 29.9036H72.3973C68.9712 29.9036 65.7302 31.1076 63.1374 33.33H89.6212C88.4172 34.9041 87.6765 36.9414 87.6765 39.1637V39.4414H60.915C61.0076 39.1638 61.0076 38.7934 61.0076 38.4228C61.0076 33.33 56.6554 29.348 51.5624 29.8111C47.6732 30.1814 44.4322 33.33 43.9692 37.3117C43.784 38.4228 43.8766 39.5341 44.1544 40.5527H38.4132C37.4872 40.5527 36.7464 40.0896 36.4686 39.1637C36.376 38.9786 36.376 38.7007 36.376 38.5155L36.4686 26.1997C36.4686 25.9219 36.4686 25.6441 36.6538 25.4589C36.9316 24.9959 37.0242 24.6255 36.839 24.1625C36.7464 23.7921 36.6538 23.4217 36.5612 22.7735C36.4971 22.0688 36.5216 20.6122 36.5429 19.3519V19.351C36.5524 18.7889 36.5612 18.2657 36.5612 17.8656C36.5612 17.4026 36.7464 16.9396 36.9316 16.4767C37.0242 16.1988 37.1168 15.8284 37.2094 15.5506L39.3392 3.0496C39.617 2.21621 40.4504 1.47541 41.7468 0.919811C43.0432 0.364211 44.4322 0.179007 45.7286 0.179007H59.063C60.1742 0.179007 61.0076 1.10501 61.0076 2.1236V6.661C62.3966 2.77181 66.0081 0.179001 70.0825 0.179001H124.531C123.42 3.2348 120.55 5.27202 117.309 5.27202ZM53.507 14.532C53.97 14.4394 54.3404 13.9764 54.3404 13.5135H54.433V4.90162C54.433 4.34603 53.97 3.88301 53.4144 3.88301H41.006C40.7282 3.88301 40.543 4.16083 40.543 4.34603L39.0614 16.2915C38.9688 16.5692 39.2466 16.7545 39.5244 16.7545C44.8026 16.7545 48.3214 15.2729 53.507 14.532ZM44.9878 38.3303C44.9878 34.1634 48.414 30.8297 52.4884 30.8297C56.6554 30.8297 59.989 34.1634 59.989 38.3303C59.989 39.9196 59.4906 41.3879 58.6479 42.5959H54.0262C55.7423 41.9642 56.9332 40.307 56.9332 38.423C56.9332 35.9227 54.9886 33.978 52.4884 33.978C49.9882 33.978 48.0436 35.9227 48.0436 38.423C48.0436 40.3687 49.2213 41.9779 50.922 42.5959H46.3039C45.4727 41.3879 44.9878 39.9196 44.9878 38.3303ZM102.843 42.5959C103.674 41.3879 104.159 39.9196 104.159 38.3303C104.159 34.1634 100.826 30.8297 96.6588 30.8297C92.5843 30.8297 89.1582 34.1634 89.1582 38.3303C89.1582 39.9196 89.6432 41.3879 90.4744 42.5959H95.0923C93.3915 41.9779 92.214 40.3687 92.214 38.423C92.214 35.9227 94.1585 33.978 96.6588 33.978C99.1591 33.978 101.104 35.9227 101.104 38.423C101.104 40.3687 99.8698 41.9779 98.1878 42.5959H102.843Z" fill="#3D52D5"/>
<path d="M18.2254 64.2395H29.3491L30.4953 59.9672H10.5143L7.04957 72.8363H15.9329L18.2254 64.2395ZM33.2828 57.8049L35.0021 51.3704H4.93945L11.0875 57.8049H33.2828Z" fill="#3D52D5"/>
<path d="M46.3867 51.3964H37.5033L31.7461 72.8363H51.7271L53.4465 66.4017H42.3488L46.3867 51.3964Z" fill="#3D52D5"/>
<path d="M80.539 57.831L82.2583 51.3964H62.2774L59.4639 53.5326L54.8789 70.7001L56.5201 72.8363H76.5011L78.2205 66.4017H64.9085L65.4816 64.2655H76.5793L77.7255 59.9671H66.6278L67.201 57.831H80.539Z" fill="#3D52D5"/>
<path d="M94.5545 72.8363L98.5924 57.831H105.235L106.981 51.3964H84.7594L83.04 57.831H89.7091L85.6712 72.8363H94.5545Z" fill="#3D52D5"/>
<path d="M129.515 57.831L131.234 51.3964H111.253L108.439 53.5326L103.854 70.7001L105.496 72.8363H125.477L127.196 66.4017H113.884L114.457 64.2655H125.555L126.701 59.9671H115.603L116.177 57.831H129.515Z" fill="#3D52D5"/>
<path d="M150.303 72.8363L152.622 64.2656L150.955 62.1033L153.768 59.9672L156.06 51.3964H147.177L145.458 57.831L142.67 59.9672L141.003 57.831L142.748 51.3964H133.865L131.547 59.9672L133.214 62.1033L130.4 64.2656L128.108 72.8363H136.991L138.711 66.4017L141.498 64.2656L143.165 66.4017L141.42 72.8363H150.303Z" fill="#3D52D5"/>
<path fill-rule="evenodd" clip-rule="evenodd" d="M0.5 46.7808V77.4261C0.5 77.4489 0.500573 77.4717 0.501712 77.4945C0.502855 77.5174 0.504563 77.5401 0.506845 77.5627C0.509127 77.5854 0.511885 77.608 0.515119 77.6306C0.518544 77.6533 0.522441 77.6758 0.526818 77.6983C0.531381 77.7205 0.536427 77.7428 0.541943 77.765C0.547459 77.7871 0.553546 77.8091 0.560201 77.8309C0.56686 77.8528 0.573993 77.8745 0.581601 77.896C0.589399 77.9175 0.597672 77.9388 0.606422 77.9599C0.614982 77.981 0.624211 78.0018 0.6341 78.0224C0.643803 78.0431 0.654072 78.0635 0.664914 78.0834C0.675566 78.1036 0.686788 78.1235 0.698582 78.1431C0.710377 78.1627 0.722548 78.182 0.735105 78.201C0.747847 78.22 0.760976 78.2387 0.774481 78.2569C0.788176 78.2754 0.802251 78.2934 0.816709 78.3109C0.831166 78.3285 0.846096 78.3458 0.861505 78.3628C0.876724 78.3797 0.892416 78.3963 0.908584 78.4124C0.924751 78.4286 0.941299 78.4443 0.958229 78.4595C0.975158 78.4749 0.992467 78.4898 1.01016 78.5043C1.02785 78.5188 1.04582 78.5328 1.06408 78.5465C1.08234 78.56 1.10099 78.5732 1.12001 78.5859C1.13903 78.5985 1.15833 78.6106 1.17793 78.6224C1.19752 78.6342 1.2174 78.6454 1.23756 78.6561C1.25753 78.6669 1.27789 78.6772 1.29862 78.6869C1.31917 78.6968 1.33999 78.7061 1.36111 78.7149C1.38222 78.7236 1.40353 78.7318 1.42502 78.7394C1.44651 78.747 1.4682 78.7542 1.49008 78.7608C1.51195 78.7675 1.53392 78.7736 1.55598 78.7791C1.57824 78.7846 1.6005 78.7896 1.62275 78.7942C1.6452 78.7986 1.66774 78.8025 1.69037 78.8059C1.71301 78.8091 1.73565 78.8119 1.75828 78.8142C1.78092 78.8164 1.80365 78.8182 1.82648 78.8193C1.8493 78.8204 1.87213 78.821 1.89495 78.821H159.105C159.128 78.821 159.151 78.8204 159.174 78.8193C159.196 78.8182 159.219 78.8164 159.242 78.8142C159.265 78.8119 159.287 78.8091 159.31 78.8059C159.333 78.8025 159.355 78.7986 159.377 78.7942C159.4 78.7896 159.422 78.7846 159.444 78.7791C159.466 78.7736 159.488 78.7675 159.51 78.7608C159.532 78.7541 159.554 78.747 159.575 78.7394C159.597 78.7318 159.618 78.7236 159.639 78.7149C159.66 78.7061 159.681 78.6968 159.702 78.6869C159.722 78.6772 159.743 78.6669 159.763 78.6561C159.783 78.6454 159.803 78.6342 159.822 78.6224C159.842 78.6106 159.861 78.5985 159.88 78.5859C159.899 78.5732 159.918 78.56 159.936 78.5465C159.954 78.5328 159.972 78.5188 159.99 78.5043C160.008 78.4898 160.025 78.4749 160.042 78.4595C160.059 78.4443 160.076 78.4286 160.092 78.4124C160.108 78.3963 160.123 78.3797 160.139 78.3628C160.154 78.3458 160.169 78.3285 160.184 78.3109C160.198 78.2934 160.212 78.2754 160.226 78.2569C160.239 78.2387 160.252 78.22 160.265 78.201C160.278 78.182 160.29 78.1627 160.302 78.1431C160.313 78.1235 160.325 78.1036 160.335 78.0834C160.346 78.0635 160.356 78.0431 160.366 78.0224C160.376 78.0018 160.385 77.981 160.394 77.9599C160.403 77.9388 160.411 77.9175 160.419 77.896C160.426 77.8745 160.433 77.8528 160.44 77.8309C160.447 77.8091 160.453 77.7871 160.458 77.765C160.464 77.7428 160.469 77.7205 160.473 77.6983C160.478 77.6758 160.482 77.6533 160.485 77.6306C160.488 77.608 160.491 77.5854 160.493 77.5627C160.496 77.5401 160.497 77.5174 160.499 77.4945C160.5 77.4717 160.5 77.4489 160.5 77.4261V46.7808C160.5 46.758 160.5 46.7351 160.499 46.7123C160.497 46.6895 160.496 46.6667 160.493 46.6441C160.491 46.6213 160.488 46.5986 160.485 46.5759C160.482 46.5535 160.478 46.531 160.473 46.5086C160.469 46.4861 160.464 46.4639 160.458 46.4418C160.453 46.4196 160.447 46.3976 160.44 46.3759C160.433 46.354 160.426 46.3323 160.419 46.3108C160.411 46.2894 160.403 46.268 160.394 46.2469C160.385 46.2258 160.376 46.2049 160.366 46.1842C160.356 46.1636 160.346 46.1433 160.335 46.1231C160.325 46.1029 160.313 46.0831 160.302 46.0635C160.29 46.0439 160.278 46.0247 160.265 46.0058C160.252 45.9868 160.239 45.9681 160.226 45.9496C160.212 45.9314 160.198 45.9134 160.184 45.8957C160.169 45.878 160.154 45.8608 160.139 45.8441C160.123 45.8271 160.108 45.8106 160.092 45.7944C160.076 45.7782 160.059 45.7625 160.042 45.7471C160.025 45.7318 160.008 45.717 159.99 45.7025C159.972 45.6879 159.954 45.6738 159.936 45.6603C159.918 45.6466 159.899 45.6335 159.88 45.6209C159.861 45.6082 159.842 45.5959 159.822 45.5841C159.803 45.5725 159.783 45.5613 159.763 45.5505C159.743 45.5398 159.722 45.5295 159.702 45.5196C159.681 45.5099 159.66 45.5007 159.639 45.492C159.618 45.4832 159.597 45.475 159.575 45.4674C159.554 45.4596 159.532 45.4524 159.51 45.4457C159.488 45.4391 159.466 45.433 159.444 45.4275C159.422 45.422 159.4 45.417 159.377 45.4126C159.355 45.4081 159.333 45.4042 159.31 45.401C159.287 45.3975 159.265 45.3947 159.242 45.3924C159.219 45.3903 159.196 45.3887 159.174 45.3875C159.151 45.3864 159.128 45.3858 159.105 45.3858H1.89495C1.87213 45.3858 1.8493 45.3864 1.82648 45.3875C1.80365 45.3887 1.78092 45.3903 1.75828 45.3924C1.73565 45.3947 1.71301 45.3975 1.69037 45.401C1.66774 45.4042 1.6452 45.4081 1.62275 45.4126C1.6005 45.417 1.57824 45.422 1.55598 45.4275C1.53392 45.433 1.51195 45.4391 1.49008 45.4457C1.4682 45.4524 1.44652 45.4596 1.42502 45.4674C1.40353 45.475 1.38222 45.4832 1.36111 45.492C1.33999 45.5007 1.31917 45.5099 1.29862 45.5196C1.27789 45.5295 1.25753 45.5398 1.23756 45.5505C1.2174 45.5613 1.19752 45.5725 1.17793 45.5841C1.15833 45.5959 1.13903 45.6082 1.12001 45.6209C1.10099 45.6335 1.08235 45.6466 1.06408 45.6603C1.04582 45.6738 1.02785 45.6879 1.01016 45.7025C0.992464 45.717 0.975158 45.7318 0.958229 45.7471C0.941299 45.7625 0.924751 45.7782 0.908584 45.7944C0.892416 45.8106 0.876721 45.8271 0.861505 45.8441C0.8461 45.8608 0.831166 45.878 0.816709 45.8957C0.802251 45.9134 0.788176 45.9314 0.774481 45.9496C0.760976 45.9681 0.747851 45.9868 0.735105 46.0058C0.722552 46.0247 0.710377 46.0439 0.698582 46.0635C0.686788 46.0831 0.675566 46.1029 0.664914 46.1231C0.654072 46.1433 0.643803 46.1636 0.6341 46.1842C0.624211 46.2049 0.614982 46.2258 0.606422 46.2469C0.597672 46.268 0.589399 46.2894 0.581601 46.3108C0.573993 46.3323 0.566856 46.354 0.560201 46.3759C0.553542 46.3976 0.547459 46.4196 0.541943 46.4418C0.536427 46.4639 0.531385 46.4861 0.526818 46.5086C0.522444 46.531 0.518544 46.5535 0.515119 46.5759C0.511885 46.5986 0.509127 46.6213 0.506845 46.6441C0.504563 46.6667 0.502851 46.6895 0.501712 46.7123C0.500569 46.7351 0.5 46.758 0.5 46.7808ZM3.28991 76.0311V48.1757H157.71V76.0311H3.28991Z" fill="#3D52D5"/>
</svg>
