<svg width="232" height="112" viewBox="0 0 232 112" fill="none" xmlns="http://www.w3.org/2000/svg">
<path fill-rule="evenodd" clip-rule="evenodd" d="M212.623 13.3692H93.7587C85.4945 13.3692 77.7156 16.2861 71.3959 21.3907L70.9097 21.8768H224.29C221.374 29.8983 213.838 35.246 205.331 35.246H93.7587C85.7372 35.246 77.959 37.9198 71.3959 42.7814L70.9097 43.2675H216.755C213.838 51.289 206.303 56.6367 197.795 56.6367H93.516C85.2511 56.6367 77.473 59.0674 70.9098 64.172L70.4237 64.6582H209.219C206.303 72.6796 198.768 78.0269 190.26 78.0269H94.7309C85.7372 78.0269 77.2295 81.1876 70.4237 87.0214H139.944C136.783 91.1535 134.839 96.5012 134.839 102.335V103.064H64.5898C64.8329 102.335 64.8329 101.363 64.8329 100.39C64.8329 87.0214 53.4083 76.5687 40.0392 77.7843C29.83 78.7564 21.3224 87.0214 20.107 97.4734C19.6209 100.39 19.8639 103.307 20.5931 105.981H5.52246C3.0917 105.981 1.14708 104.765 0.417862 102.335C0.174792 101.849 0.174805 101.119 0.174805 100.633L0.417862 68.3042C0.417862 67.575 0.417872 66.8458 0.904022 66.3597C1.63325 65.1443 1.87633 64.172 1.39017 62.9566C1.1471 61.9843 0.904014 61.012 0.660934 59.3104C0.492724 57.4606 0.557142 53.6371 0.613052 50.3288V50.3264C0.637842 48.8509 0.660934 47.4775 0.660934 46.4274C0.660934 45.2121 1.14709 43.9967 1.63326 42.7813C1.87633 42.0521 2.11939 41.0797 2.36247 40.3505L7.95322 7.53532C8.68242 5.34768 10.8701 3.40307 14.2732 1.94463C17.6762 0.486176 21.3224 1.52588e-05 24.7254 1.52588e-05H59.7283C62.6452 1.52588e-05 64.8329 2.43076 64.8329 5.10458V17.0153C68.479 6.80612 77.959 0 88.6544 0H231.582C228.666 8.02147 221.13 13.3692 212.623 13.3692ZM45.1438 37.6767C46.3592 37.4337 47.3314 36.2183 47.3314 35.0029H47.5745V12.3969C47.5745 10.9385 46.3592 9.72302 44.9007 9.72302H12.3286C11.5993 9.72302 11.1131 10.4523 11.1131 10.9385L7.22398 42.2952C6.98091 43.0244 7.7101 43.5106 8.43938 43.5106C22.2947 43.5106 31.5315 39.6214 45.1438 37.6767ZM22.7808 100.147C22.7808 89.2092 31.7746 80.4581 42.47 80.4581C53.4083 80.4581 62.1591 89.2092 62.1591 100.147C62.1591 104.319 60.8507 108.173 58.6386 111.344H46.5066C51.0114 109.686 54.1376 105.336 54.1376 100.391C54.1376 93.8273 49.033 88.7223 42.47 88.7223C35.9069 88.7223 30.8023 93.8273 30.8023 100.391C30.8023 105.498 33.8937 109.722 38.3582 111.344H26.2357C24.0538 108.173 22.7808 104.319 22.7808 100.147ZM174.651 111.344C176.833 108.173 178.106 104.319 178.106 100.147C178.106 89.2092 169.355 80.4581 158.417 80.4581C147.722 80.4581 138.728 89.2092 138.728 100.147C138.728 104.319 140.001 108.173 142.183 111.344H154.305C149.841 109.722 146.75 105.498 146.75 100.391C146.75 93.8273 151.854 88.7223 158.417 88.7223C164.98 88.7223 170.085 93.8273 170.085 100.391C170.085 105.498 166.846 109.722 162.431 111.344H174.651Z" fill="white"/>
</svg>
