<svg width="420" height="207" viewBox="0 0 420 207" fill="none" xmlns="http://www.w3.org/2000/svg">
<path fill-rule="evenodd" clip-rule="evenodd" d="M306.623 13.3692H187.759C179.494 13.3692 171.716 16.2861 165.396 21.3907L164.91 21.8768H318.29C315.374 29.8983 307.838 35.246 299.331 35.246H187.759C179.737 35.246 171.959 37.9198 165.396 42.7814L164.91 43.2675H310.755C307.838 51.289 300.303 56.6367 291.795 56.6367H187.516C179.251 56.6367 171.473 59.0674 164.91 64.172L164.424 64.6582H303.219C300.303 72.6796 292.768 78.0269 284.26 78.0269H188.731C179.737 78.0269 171.23 81.1876 164.424 87.0214H233.944C230.783 91.1535 228.839 96.5012 228.839 102.335V103.064H158.59C158.833 102.335 158.833 101.363 158.833 100.39C158.833 87.0214 147.408 76.5687 134.039 77.7843C123.83 78.7564 115.322 87.0214 114.107 97.4734C113.621 100.39 113.864 103.307 114.593 105.981H99.5225C97.0917 105.981 95.1471 104.765 94.4179 102.335C94.1748 101.849 94.1748 101.119 94.1748 100.633L94.4179 68.3042C94.4179 67.575 94.4179 66.8458 94.904 66.3597C95.6333 65.1443 95.8763 64.172 95.3902 62.9566C95.1471 61.9843 94.904 61.012 94.6609 59.3104C94.4927 57.4606 94.5571 53.6371 94.6131 50.3288V50.3264C94.6378 48.8509 94.6609 47.4775 94.6609 46.4274C94.6609 45.2121 95.1471 43.9967 95.6333 42.7813C95.8763 42.0521 96.1194 41.0797 96.3625 40.3505L101.953 7.53532C102.682 5.34768 104.87 3.40307 108.273 1.94463C111.676 0.486176 115.322 1.52588e-05 118.725 1.52588e-05H153.728C156.645 1.52588e-05 158.833 2.43076 158.833 5.10458V17.0153C162.479 6.80612 171.959 0 182.654 0H325.582C322.666 8.02147 315.13 13.3692 306.623 13.3692ZM139.144 37.6767C140.359 37.4337 141.331 36.2183 141.331 35.0029H141.575V12.3969C141.575 10.9385 140.359 9.72302 138.901 9.72302H106.329C105.599 9.72302 105.113 10.4523 105.113 10.9385L101.224 42.2952C100.981 43.0244 101.71 43.5106 102.439 43.5106C116.295 43.5106 125.532 39.6214 139.144 37.6767ZM116.781 100.147C116.781 89.2092 125.775 80.4581 136.47 80.4581C147.408 80.4581 156.159 89.2092 156.159 100.147C156.159 104.319 154.851 108.173 152.639 111.344H140.507C145.011 109.686 148.138 105.336 148.138 100.391C148.138 93.8273 143.033 88.7223 136.47 88.7223C129.907 88.7223 124.802 93.8273 124.802 100.391C124.802 105.498 127.894 109.722 132.358 111.344H120.236C118.054 108.173 116.781 104.319 116.781 100.147ZM268.651 111.344C270.833 108.173 272.106 104.319 272.106 100.147C272.106 89.2092 263.355 80.4581 252.417 80.4581C241.722 80.4581 232.728 89.2092 232.728 100.147C232.728 104.319 234.001 108.173 236.183 111.344H248.305C243.841 109.722 240.75 105.498 240.75 100.391C240.75 93.8273 245.854 88.7223 252.417 88.7223C258.98 88.7223 264.085 93.8273 264.085 100.391C264.085 105.498 260.846 109.722 256.431 111.344H268.651Z" fill="#3D52D5"/>
<path d="M46.5299 168.159H75.7296L78.7385 156.944H26.2883L17.1934 190.725H40.5121L46.5299 168.159ZM86.0555 151.268L90.5688 134.377H11.6543L27.7928 151.268H86.0555Z" fill="white"/>
<path d="M120.452 134.446H97.1333L82.0205 190.725H134.471L138.984 173.835H109.853L120.452 134.446Z" fill="white"/>
<path d="M210.103 151.337L214.616 134.446H162.166L154.781 140.053L142.745 185.118L147.053 190.725H199.503L204.017 173.835H169.073L170.577 168.227H199.709L202.717 156.944H173.586L175.091 151.337H210.103Z" fill="white"/>
<path d="M246.893 190.725L257.492 151.337H274.93L279.512 134.446H221.181L216.667 151.337H234.174L223.574 190.725H246.893Z" fill="white"/>
<path d="M338.664 151.337L343.177 134.446H290.727L283.342 140.053L271.306 185.118L275.614 190.725H328.064L332.578 173.835H297.634L299.138 168.227H328.27L331.278 156.944H302.147L303.652 151.337H338.664Z" fill="white"/>
<path d="M393.234 190.725L399.32 168.227L394.944 162.551L402.329 156.944L408.347 134.446H385.028L380.515 151.337L373.198 156.944L368.821 151.337L373.403 134.446H350.084L343.998 156.944L348.374 162.551L340.989 168.227L334.971 190.725H358.29L362.803 173.835L370.12 168.227L374.497 173.835L369.915 190.725H393.234Z" fill="white"/>
<path fill-rule="evenodd" clip-rule="evenodd" d="M0 122.33V202.774C0 202.833 0.00150371 202.893 0.00449371 202.953C0.00749371 203.013 0.0119772 203.073 0.0179672 203.132C0.0239572 203.192 0.0311981 203.251 0.0396881 203.311C0.0486781 203.37 0.0589064 203.429 0.0703964 203.488C0.0823764 203.547 0.0956198 203.605 0.1101 203.663C0.12458 203.721 0.140558 203.779 0.158028 203.836C0.175508 203.894 0.194233 203.951 0.214203 204.007C0.234673 204.064 0.256388 204.119 0.279358 204.175C0.301828 204.23 0.326053 204.285 0.352013 204.339C0.377483 204.393 0.404439 204.447 0.432899 204.499C0.460859 204.552 0.490318 204.604 0.521278 204.656C0.552238 204.707 0.584189 204.758 0.617149 204.808C0.650599 204.858 0.685062 204.907 0.720512 204.955C0.756462 205.003 0.79341 205.05 0.83136 205.096C0.86931 205.143 0.908502 205.188 0.948952 205.232C0.988902 205.277 1.03009 205.32 1.07253 205.363C1.11497 205.405 1.15841 205.446 1.20285 205.486C1.24729 205.527 1.29273 205.566 1.33916 205.604C1.3856 205.642 1.43278 205.679 1.48072 205.715C1.52865 205.75 1.57759 205.785 1.62752 205.818C1.67745 205.851 1.72813 205.883 1.77956 205.914C1.83099 205.945 1.88317 205.974 1.9361 206.002C1.98853 206.031 2.04196 206.058 2.09638 206.083C2.15031 206.109 2.20498 206.134 2.26041 206.157C2.31583 206.18 2.37176 206.201 2.42818 206.221C2.4846 206.241 2.54153 206.26 2.59895 206.277C2.65637 206.295 2.71404 206.311 2.77196 206.325C2.83038 206.34 2.8888 206.353 2.94722 206.365C3.00614 206.376 3.06531 206.387 3.12473 206.396C3.18415 206.404 3.24357 206.411 3.30299 206.417C3.36241 206.423 3.42208 206.428 3.482 206.431C3.54192 206.434 3.60184 206.435 3.66175 206.435H416.339C416.399 206.435 416.459 206.434 416.518 206.431C416.578 206.428 416.638 206.423 416.698 206.417C416.757 206.411 416.817 206.404 416.876 206.396C416.935 206.387 416.994 206.376 417.053 206.365C417.112 206.353 417.17 206.34 417.228 206.325C417.286 206.311 417.344 206.295 417.402 206.277C417.459 206.26 417.516 206.241 417.573 206.221C417.629 206.201 417.685 206.18 417.74 206.157C417.795 206.134 417.85 206.109 417.904 206.083C417.958 206.058 418.012 206.031 418.065 206.002C418.118 205.974 418.17 205.945 418.221 205.914C418.273 205.883 418.323 205.851 418.373 205.818C418.423 205.785 418.472 205.75 418.52 205.715C418.568 205.679 418.615 205.642 418.662 205.604C418.708 205.566 418.753 205.527 418.798 205.486C418.842 205.446 418.886 205.405 418.928 205.363C418.97 205.32 419.011 205.277 419.052 205.232C419.092 205.188 419.131 205.143 419.169 205.096C419.207 205.05 419.244 205.003 419.279 204.955C419.315 204.907 419.35 204.858 419.384 204.808C419.417 204.758 419.449 204.707 419.479 204.656C419.51 204.604 419.54 204.552 419.568 204.499C419.596 204.447 419.623 204.393 419.649 204.339C419.674 204.285 419.698 204.23 419.721 204.175C419.744 204.119 419.766 204.064 419.787 204.007C419.806 203.951 419.825 203.894 419.843 203.836C419.86 203.779 419.876 203.721 419.891 203.663C419.905 203.605 419.918 203.547 419.93 203.488C419.942 203.429 419.952 203.37 419.961 203.311C419.97 203.251 419.977 203.192 419.983 203.132C419.989 203.073 419.993 203.013 419.996 202.953C419.999 202.893 420 202.833 420 202.774V122.33C420 122.27 419.999 122.21 419.996 122.15C419.993 122.09 419.989 122.03 419.983 121.971C419.977 121.911 419.97 121.851 419.961 121.792C419.952 121.733 419.942 121.674 419.93 121.615C419.918 121.556 419.905 121.498 419.891 121.44C419.876 121.381 419.86 121.324 419.843 121.267C419.825 121.209 419.806 121.153 419.787 121.096C419.766 121.04 419.744 120.984 419.721 120.928C419.698 120.873 419.674 120.818 419.649 120.764C419.623 120.71 419.596 120.656 419.568 120.603C419.54 120.55 419.51 120.498 419.479 120.447C419.449 120.395 419.417 120.345 419.384 120.295C419.35 120.246 419.315 120.196 419.279 120.148C419.244 120.1 419.207 120.053 419.169 120.006C419.131 119.96 419.092 119.915 419.052 119.871C419.011 119.826 418.97 119.783 418.928 119.74C418.886 119.698 418.842 119.657 418.798 119.616C418.753 119.576 418.708 119.537 418.662 119.499C418.615 119.461 418.568 119.424 418.52 119.388C418.472 119.353 418.423 119.318 418.373 119.285C418.323 119.252 418.273 119.219 418.221 119.188C418.17 119.158 418.118 119.129 418.065 119.1C418.012 119.072 417.958 119.045 417.904 119.019C417.85 118.994 417.795 118.97 417.74 118.947C417.685 118.924 417.629 118.902 417.573 118.882C417.516 118.862 417.459 118.843 417.402 118.825C417.344 118.808 417.286 118.792 417.228 118.777C417.17 118.763 417.112 118.75 417.053 118.738C416.994 118.726 416.935 118.716 416.876 118.708C416.817 118.699 416.757 118.691 416.698 118.685C416.638 118.68 416.578 118.675 416.518 118.672C416.459 118.669 416.399 118.668 416.339 118.668H3.66175C3.60183 118.668 3.54191 118.669 3.482 118.672C3.42208 118.675 3.36241 118.68 3.30299 118.685C3.24357 118.691 3.18415 118.699 3.12473 118.708C3.06531 118.716 3.00614 118.726 2.94722 118.738C2.8888 118.75 2.83038 118.763 2.77196 118.777C2.71404 118.792 2.65637 118.808 2.59895 118.825C2.54153 118.843 2.48461 118.862 2.42818 118.882C2.37176 118.902 2.31583 118.924 2.26041 118.947C2.20499 118.97 2.15031 118.994 2.09638 119.019C2.04195 119.045 1.98853 119.072 1.9361 119.1C1.88317 119.129 1.83099 119.158 1.77956 119.188C1.72813 119.219 1.67745 119.252 1.62752 119.285C1.57759 119.318 1.52866 119.353 1.48072 119.388C1.43279 119.424 1.3856 119.461 1.33916 119.499C1.29272 119.537 1.24729 119.576 1.20285 119.616C1.15841 119.657 1.11497 119.698 1.07253 119.74C1.03009 119.783 0.988892 119.826 0.948952 119.871C0.908512 119.915 0.86931 119.96 0.83136 120.006C0.79341 120.053 0.756462 120.1 0.720512 120.148C0.685062 120.196 0.650609 120.246 0.617149 120.295C0.584199 120.345 0.552238 120.395 0.521278 120.447C0.490318 120.498 0.460859 120.55 0.432899 120.603C0.404439 120.656 0.377483 120.71 0.352013 120.764C0.326053 120.818 0.301828 120.873 0.279358 120.928C0.256388 120.984 0.234673 121.04 0.214203 121.096C0.194233 121.153 0.175498 121.209 0.158028 121.267C0.140548 121.324 0.12458 121.381 0.1101 121.44C0.0956198 121.498 0.0823864 121.556 0.0703964 121.615C0.0589164 121.674 0.0486781 121.733 0.0396881 121.792C0.0311981 121.851 0.0239572 121.911 0.0179672 121.971C0.0119772 122.03 0.00748371 122.09 0.00449371 122.15C0.00149371 122.21 0 122.27 0 122.33ZM7.3235 199.112V125.991H412.677V199.112H7.3235Z" fill="white"/>
</svg>
